<?xml version="1.0" encoding="UTF-8"?>
<svg width="72px" height="76px" viewBox="0 0 72 76" version="1.1" xmlns="http://www.w3.org/2000/svg" xmlns:xlink="http://www.w3.org/1999/xlink">
    <title>NSWGov_Waratah_Primary_RGB</title>
    <defs>
        <polygon id="path-1" points="-3.00121113e-15 0 64.6390678 0 64.6390678 29.7302059 -3.00121113e-15 29.7302059"></polygon>
        <polygon id="path-3" points="-3.00121113e-15 0 64.6390678 0 64.6390678 29.7302059 -3.00121113e-15 29.7302059"></polygon>
        <polygon id="path-5" points="-3.00121113e-15 0 64.6390678 0 64.6390678 29.7302059 -3.00121113e-15 29.7302059"></polygon>
        <polygon id="path-7" points="0 0 71.1537568 0 71.1537568 66.0336555 0 66.0336555"></polygon>
        <polygon id="path-9" points="0 0 71.1537568 0 71.1537568 66.0336555 0 66.0336555"></polygon>
    </defs>
    <g id="Page-1" stroke="none" stroke-width="1" fill="none" fill-rule="evenodd">
        <g id="NSWGov_Waratah_Primary_RGB" transform="translate(0.000000, 0.203000)">
            <g id="Group-5" transform="translate(3.003263, 45.269794)">
                <g id="Fill-1-Clipped">
                    <mask id="mask-2" fill="white">
                        <use xlink:href="#path-1"></use>
                    </mask>
                    <g id="path-1"></g>
                    <path d="M59.9378252,0.00193089333 L56.9152531,12.9927398 L53.7430367,0.00193089333 L49.3789764,0.00193089333 L46.1534191,12.8450265 L43.2225644,0.00193089333 L38.4532579,0.00193089333 L43.7306307,20.2881376 L48.4241497,20.2881376 L51.5208199,7.45445505 L54.6689001,20.2881376 L59.2786665,20.2881376 L59.325008,20.1145985 L64.6390678,0.00193089333 L59.9378252,0.00193089333 Z M16.2018846,12.9637764 L5.16224331,0 L0.48537831,0 L0.48537831,20.2910339 L5.04059703,20.2910339 L5.04059703,7.35597949 L16.0486199,20.2910339 L20.7554137,20.2910339 L20.7554137,0 L16.2018846,0 L16.2018846,12.9637764 L16.2018846,12.9637764 Z" id="Fill-1" fill="#1E264B" fill-rule="nonzero" mask="url(#mask-2)"></path>
                </g>
                <g id="Fill-3-Clipped">
                    <mask id="mask-4" fill="white">
                        <use xlink:href="#path-3"></use>
                    </mask>
                    <g id="path-1"></g>
                    <path d="M-3.00121113e-15,26.5140617 L-3.00121113e-15,26.4971664 C-3.00121113e-15,24.7378812 1.34534993,23.2496452 3.23810811,23.2496452 C4.33364871,23.2496452 5.00559959,23.5540023 5.65293158,24.1018932 L4.95322411,24.9357978 C4.46736308,24.5223453 3.99212196,24.2631228 3.19418029,24.2631228 C2.03709246,24.2631228 1.15757055,25.275635 1.15757055,26.4783402 L1.15757055,26.4971664 C1.15757055,27.78821 2.00909451,28.7396577 3.29265585,28.7396577 C3.88495738,28.7396577 4.42343525,28.5513956 4.80913119,28.2629684 L4.80913119,27.0877784 L3.20214522,27.0877784 L3.20214522,26.1276417 L5.87739793,26.1276417 L5.87739793,28.7645179 C5.25758117,29.2945481 4.36937024,29.7446876 3.25693432,29.7446876 C1.29273308,29.7446876 -3.00121113e-15,28.3435832 -3.00121113e-15,26.5140617" id="Fill-3" fill="#1E264B" fill-rule="nonzero" mask="url(#mask-4)"></path>
                </g>
                <g id="Fill-4-Clipped">
                    <mask id="mask-6" fill="white">
                        <use xlink:href="#path-5"></use>
                    </mask>
                    <g id="path-1"></g>
                    <path d="M11.9539192,26.5140617 L11.9539192,26.4971664 C11.9539192,25.275635 11.0645015,24.2631228 9.81738576,24.2631228 C8.57027004,24.2631228 7.7016094,25.2577743 7.7016094,26.4783402 L7.7016094,26.4971664 C7.7016094,27.7179737 8.58933761,28.7302445 9.83572925,28.7302445 C11.082845,28.7302445 11.9539192,27.734145 11.9539192,26.5140617 M6.54355613,26.5140617 L6.54355613,26.4971664 C6.54355613,24.7289508 7.90797362,23.2496452 9.83572925,23.2496452 C11.7658985,23.2496452 13.110283,24.710366 13.110283,26.4783402 L13.110283,26.4971664 C13.110283,28.2629684 11.7473136,29.7446876 9.81738576,29.7446876 C7.88890605,29.7446876 6.54355613,28.2822773 6.54355613,26.5140617" id="Fill-4" fill="#1E264B" fill-rule="nonzero" mask="url(#mask-6)"></path>
                </g>
            </g>
            <polyline id="Fill-6" fill="#1E264B" fill-rule="nonzero" points="16.0343796 68.625397 17.2542214 68.625397 19.1474623 73.4531131 21.0310488 68.625397 22.2245822 68.625397 19.6135317 74.9517277 18.6444646 74.9517277 16.0343796 68.625397"></polyline>
            <polyline id="Fill-7" fill="#1E264B" fill-rule="nonzero" points="22.9684589 68.625397 27.6255322 68.625397 27.6255322 69.6135317 24.0724471 69.6135317 24.0724471 71.2465847 27.2224582 71.2465847 27.2224582 72.2335126 24.0724471 72.2335126 24.0724471 73.9199065 27.6711496 73.9199065 27.6711496 74.9056276 22.9684589 74.9056276 22.9684589 68.625397"></polyline>
            <path d="M31.460045,71.7394453 C32.2490563,71.7394453 32.7525367,71.3257514 32.7525367,70.6892806 L32.7525367,70.6714199 C32.7525367,69.9987449 32.2678825,69.6309097 31.4503905,69.6309097 L29.8448527,69.6309097 L29.8448527,71.7394453 L31.460045,71.7394453 Z M28.7418299,68.625397 L31.5401771,68.625397 C32.3306365,68.625397 32.9492465,68.8602419 33.3525618,69.2539028 C33.6853996,69.5947055 33.8726962,70.0607749 33.8726962,70.6077004 L33.8726962,70.6274921 C33.8726962,71.6590718 33.2543276,72.2774404 32.3750471,72.5291806 L34.0710955,74.9056276 L32.7696734,74.9056276 L31.2264069,72.7172014 L29.8448527,72.7172014 L29.8448527,74.9056276 L28.7418299,74.9056276 L28.7418299,68.625397 L28.7418299,68.625397 Z" id="Fill-8" fill="#1E264B" fill-rule="nonzero"></path>
            <polyline id="Fill-9" fill="#1E264B" fill-rule="nonzero" points="34.8468319 68.625397 35.8665849 68.625397 39.2323734 72.966528 39.2323734 68.625397 40.3185009 68.625397 40.3185009 74.9056276 39.3931202 74.9056276 35.9303044 70.4370577 35.9303044 74.9056276 34.8468319 74.9056276 34.8468319 68.625397"></polyline>
            <polyline id="Fill-10" fill="#1E264B" fill-rule="nonzero" points="41.4386603 68.625397 42.6140917 68.625397 44.5251933 71.5963178 46.4360536 68.625397 47.6117263 68.625397 47.6117263 74.9056276 46.5082208 74.9056276 46.5082208 70.4020603 44.5251933 73.3630852 44.4892304 73.3630852 42.5259947 70.4196797 42.5259947 74.9056276 41.4386603 74.9056276 41.4386603 68.625397"></polyline>
            <polyline id="Fill-11" fill="#1E264B" fill-rule="nonzero" points="48.6638218 68.625397 53.319447 68.625397 53.319447 69.6135317 49.7673274 69.6135317 49.7673274 71.2465847 52.9166144 71.2465847 52.9166144 72.2335126 49.7673274 72.2335126 49.7673274 73.9199065 53.3662712 73.9199065 53.3662712 74.9056276 48.6638218 74.9056276 48.6638218 68.625397"></polyline>
            <polyline id="Fill-12" fill="#1E264B" fill-rule="nonzero" points="54.4514332 68.625397 55.4745653 68.625397 58.8384228 72.966528 58.8384228 68.625397 59.9245503 68.625397 59.9245503 74.9056276 59.0011006 74.9056276 55.5375607 70.4370577 55.5375607 74.9056276 54.4514332 74.9056276 54.4514332 68.625397"></polyline>
            <polyline id="Fill-13" fill="#1E264B" fill-rule="nonzero" points="62.7902374 69.6492532 60.7990037 69.6492532 60.7990037 68.625397 65.8948725 68.625397 65.8948725 69.6492532 63.9041215 69.6492532 63.9041215 74.9056276 62.7902374 74.9056276 62.7902374 69.6492532"></polyline>
            <g id="Group-17">
                <g id="Fill-14-Clipped">
                    <mask id="mask-8" fill="white">
                        <use xlink:href="#path-7"></use>
                    </mask>
                    <g id="path-3"></g>
                    <path d="M25.0132749,62.7356897 L27.6926307,59.5263036 C29.5482192,61.0570193 31.4916634,62.0289827 33.8473532,62.0289827 C35.7029417,62.0289827 36.8231012,61.2925883 36.8231012,60.0852972 L36.8231012,60.0259222 C36.8231012,58.8775234 36.1159115,58.2888423 32.6697497,57.4054586 C28.5173636,56.3456396 25.8382491,55.1972408 25.8382491,51.1039883 L25.8382491,51.045096 C25.8382491,47.3054384 28.841995,44.831964 33.0537561,44.831964 C36.0560538,44.831964 38.6190734,45.7747227 40.7107136,47.452669 L38.3550237,50.868902 C36.5274332,49.602236 34.731461,48.8366368 32.9929329,48.8366368 C31.2563357,48.8366368 30.34423,49.6314407 30.34423,50.6330916 L30.34423,50.6919839 C30.34423,52.0465056 31.2259242,52.4881974 34.7901119,53.4007859 C38.9721855,54.4898097 41.3281167,55.9925274 41.3281167,59.5847131 L41.3281167,59.6431226 C41.3281167,63.7358924 38.207069,66.0336555 33.7597389,66.0336555 C30.6372431,66.0336555 27.487232,64.9436662 25.0132749,62.7356897" id="Fill-14" fill="#1E264B" fill-rule="nonzero" mask="url(#mask-8)"></path>
                </g>
                <g id="Fill-16-Clipped">
                    <mask id="mask-10" fill="white">
                        <use xlink:href="#path-9"></use>
                    </mask>
                    <g id="path-3"></g>
                    <path d="M71.1529364,31.0907616 C71.1350756,30.1547611 70.4143697,29.5281862 70.0009172,29.1825563 C69.5874646,28.8369264 67.665019,27.4406492 64.0597998,25.3478022 C64.3385725,24.9852769 64.4570811,24.7938771 64.7216135,24.420732 C66.0220701,22.5859006 67.2110177,20.6890393 67.7864239,18.4931308 C67.9314823,17.9394472 68.1882911,16.7543614 67.9664797,16.1483023 C67.696396,15.4102183 67.0483399,14.9419767 66.3824231,14.7619209 C64.8413288,14.345572 59.2953205,14.6854092 58.8480773,14.725958 C58.8683517,13.0690101 58.8036668,10.350071 58.2087103,7.59685844 C58.0561697,6.97655896 57.7906719,6.02486991 57.1105147,5.74247676 C55.9225326,5.27447649 54.6162832,5.92180847 53.56636,6.40404908 C52.1343612,7.06175962 51.0747835,7.58841078 49.5447919,8.37983568 C48.8426708,5.89550005 48.1024146,3.55718823 47.8434335,2.96536943 C47.6544473,2.53333205 47.3773641,1.74649301 46.5473214,1.58815976 C45.7013487,1.42668881 45.2374516,1.76387105 44.8191718,2.02043851 C44.0876046,2.46864712 40.9074233,4.72151691 39.8502592,5.59838384 C39.1346219,4.41016036 38.6953437,3.57191129 38.0137383,2.49278329 C37.7511368,2.0771585 37.068566,0.953619942 36.5737746,0.45496674 C36.3041736,0.183676228 36.0104365,-0.00434450999 35.5672965,-0.00014503713 C35.1412931,-0.00014503713 34.8451424,0.191158439 34.5803686,0.45786308 C34.0853358,0.956274921 33.4025237,2.08005484 33.1401635,2.49567963 C32.4585582,3.57480763 32.01928,4.4130567 31.303884,5.60103882 C30.2464785,4.72441325 27.0662972,2.4713021 26.3349714,2.02309348 C25.9162089,1.76652603 25.4525531,1.42958515 24.6065805,1.5910561 C23.7765377,1.74938935 23.4994545,2.53622839 23.310227,2.96826577 C23.0514873,3.56008457 22.311231,5.89839639 21.60911,8.38273202 C20.0791184,7.59106576 19.014472,7.06175962 17.5827146,6.40404908 C16.53255,5.92180847 15.2313693,5.27713146 14.0431458,5.7453731 C13.3634714,6.02776625 13.0974908,6.97945529 12.9451916,7.59951341 C12.3502351,10.3529673 12.2855502,13.0716651 12.3060659,14.7288543 C11.8585814,14.6883055 6.31281437,14.348227 4.77172014,14.7648172 C4.10556194,14.944873 3.45750587,15.4128733 3.18742216,16.1511986 C2.96561079,16.7570164 3.22217824,17.9421022 3.36747796,18.4960272 C3.94264281,20.6919356 5.13183174,22.5885556 6.43252976,24.423387 C6.69682078,24.7965321 6.81532936,24.9881733 7.09410209,25.3506985 C3.48888288,27.4435455 1.56643721,28.8395814 1.15298468,29.1852113 C0.739532145,29.5310826 0.0188262099,30.1574161 0.000724084998,31.093658 C-0.00724084998,31.508076 0.0369283349,31.8498441 0.41586615,32.383012 C1.10519507,33.3525618 4.93174292,37.0294654 13.5051507,38.3422315 C12.0352581,39.4133946 12.3304434,40.7452283 12.5481517,41.2820166 C12.7190357,41.7036755 13.1341778,42.1926742 13.97122,42.6517441 C15.3158459,43.389104 16.9838963,43.5614362 18.3999652,43.587986 C20.4324718,43.6256384 22.5711776,43.1996351 24.5571013,42.795837 C26.4537213,42.4096583 28.4365074,41.6293361 30.3748829,41.5383427 C31.5078346,41.4852431 32.6436826,41.5117929 33.7742206,41.5996486 C34.1724674,41.6305429 34.6858437,41.6937796 35.5892604,41.6932969 C36.3900984,41.6928142 36.9874685,41.6274052 37.3794398,41.5969936 C38.5102193,41.509138 39.6460673,41.4823468 40.7787776,41.5354464 C42.7176358,41.6266811 44.7004219,42.4070034 46.5968005,42.7929407 C48.5824829,43.1969801 50.7216714,43.6227421 52.7539366,43.5850896 C54.1702469,43.5587812 55.838056,43.3862076 57.1824405,42.6488477 C58.0197241,42.1897779 58.4351075,41.7007791 58.6059916,41.2791203 C58.8234584,40.7425733 59.1186437,39.4104983 57.6487512,38.3395766 C66.2219176,37.0268105 70.0487068,33.3496655 70.7377943,32.380357 C71.1172149,31.8469477 71.1609013,31.5051796 71.1529364,31.0907616" id="Fill-16" fill="#FFFFFE" fill-rule="nonzero" mask="url(#mask-10)"></path>
                </g>
            </g>
            <path d="M48.6961643,12.7113121 C48.875496,13.4660501 49.7849468,18.1614999 49.7849468,23.0814161 C49.7849468,26.644397 49.3517026,29.8055108 48.4994545,32.4822116 C47.5960378,35.3015573 45.8927485,37.1151488 44.4646116,38.2068276 C48.1308953,38.087595 51.4177584,35.8093822 53.7442435,31.761023 C56.775746,26.4561349 57.4238021,19.7967252 57.5186573,14.9270122 C57.6265459,9.38196932 57.2114039,8.07330637 57.0504156,7.53675938 C56.8887033,6.99659197 56.6659265,6.78202145 56.1892372,6.79191728 C55.2546848,6.80760579 51.3103525,8.56906323 47.6240358,11.2028017 C48.1533419,11.4801263 48.5170739,11.9565742 48.6961643,12.7113121" id="Fill-18" fill="#C4243B" fill-rule="nonzero"></path>
            <path d="M38.6671043,38.9581865 C41.2873266,38.9029147 45.6132517,36.7912415 47.1147626,32.0342444 C47.915842,29.5426679 48.1929252,27.0609873 48.3218123,23.0823816 C48.4767665,18.3026965 47.5069754,13.718273 47.4504967,13.4508443 C47.3754332,13.0974908 47.2448566,12.5495998 46.8043715,12.4615028 C46.393574,12.3794398 45.984466,12.8344066 45.7266917,13.0511494 C45.4691588,13.2681335 39.0528003,18.8650692 36.2626594,25.7974589 C35.7500072,27.2333195 34.8567277,28.7106943 34.8270402,33.1469217 C34.8164203,34.7447359 34.9752363,36.5310536 35.7729366,37.5339113 C36.2216279,38.0979735 37.0490157,38.9924599 38.6671043,38.9581865" id="Fill-19" fill="#C4243B" fill-rule="nonzero"></path>
            <path d="M48.3370181,8.98589482 C47.6167949,5.67320596 46.9296382,3.41864664 46.9236042,3.40488902 C46.7717877,3.00060823 46.5567345,2.69311347 46.2417575,2.64073799 C45.8843009,2.58136302 45.6680408,2.67573543 45.317101,2.93230288 C44.8635824,3.26393381 41.6737466,5.78181871 40.6317883,6.64541075 C41.7002964,8.62578322 42.5583371,11.091534 43.2602168,13.0545284 C44.834619,11.8136881 45.7805154,10.7142857 48.3370181,8.98589482" id="Fill-20" fill="#C4243B" fill-rule="nonzero"></path>
            <path d="M66.7939447,17.2754612 C66.8262872,16.9073847 66.7949102,16.4804159 66.642611,16.2581218 C66.4372122,15.9590747 66.1767829,15.8178781 65.5299337,15.737022 C64.2338215,15.5750683 58.8550768,16.0828933 58.8550768,16.0828933 C58.799805,18.3794495 58.6079225,20.5502563 58.2830497,22.5376283 C59.8410392,23.1308953 61.2986223,23.7369544 62.9196073,24.5406887 C66.0809624,20.5521872 66.7302252,17.9971326 66.7939447,17.2754612" id="Fill-21" fill="#C4243B" fill-rule="nonzero"></path>
            <path d="M69.7255235,31.1129669 C69.7018701,30.5855917 69.4593016,30.1530716 68.5995713,29.5786308 C67.0435127,28.538362 63.0926636,25.9379314 58.0173105,24.0157271 C57.3699785,27.2748337 56.3567422,30.1260391 55.0063237,32.4904179 C53.6131841,34.938308 51.811902,36.8588227 49.7615347,38.0941117 C55.9568059,37.6739011 61.1617702,36.7144885 64.9089101,34.9059655 C69.1889765,32.840151 69.7561764,31.8003649 69.7255235,31.1129669" id="Fill-22" fill="#C4243B" fill-rule="nonzero"></path>
            <path d="M56.0514197,39.0916595 C55.0229776,39.1203815 54.2264841,39.2890933 52.5145058,39.5746242 C51.1380203,39.8039178 50.0687881,39.8765676 48.7929503,39.8430184 C48.04666,39.8234681 46.37692,39.8063314 46.37692,39.8063314 C45.5963564,39.7889534 44.7112832,39.7684376 43.8262099,39.7684376 L43.8254859,39.7684376 C41.9814827,39.7684376 39.5975536,39.8430184 37.500362,40.4275963 C37.3900598,40.4606629 37.2565868,40.4973498 37.2715512,40.6243061 C37.2838606,40.7254366 37.4479866,40.7276089 37.6089748,40.7295398 C37.7745489,40.7312293 39.3125054,40.6226166 40.0715879,40.6226166 C42.813215,40.6226166 44.6861816,41.0956854 46.4971181,41.5530658 C48.1996833,41.9834136 49.8088416,42.3898667 52.0443333,42.3898667 C54.4031609,42.3898667 56.4438738,42.0876819 57.2048871,41.2462951 C57.4619373,40.9631779 57.7160911,40.436044 57.5809286,39.9586306 C57.4100445,39.3547437 56.9782485,39.0696956 56.0514197,39.0916595" id="Fill-23" fill="#C4243B" fill-rule="nonzero"></path>
            <path d="M17.4096583,31.761023 C19.7363848,35.8093822 23.0227652,38.087595 26.6892903,38.2068276 C25.2611533,37.1151488 23.557864,35.3015573 22.6544473,32.4822116 C21.8021993,29.8055108 21.3689551,26.644397 21.3689551,23.0814161 C21.3689551,18.1614999 22.2784059,13.4660501 22.4577376,12.7113121 C22.6368279,11.9565742 23.00056,11.4801263 23.5298661,11.2028017 C19.7931048,8.43221116 15.899217,6.80760579 14.9646647,6.79191728 C14.4879754,6.78202145 14.2654399,6.99659197 14.1032449,7.53675938 C13.9422566,8.07330637 13.5273559,9.38196932 13.6352446,14.9270122 C13.7300997,19.7967252 14.3781558,26.4561349 17.4096583,31.761023" id="Fill-24" fill="#C4243B" fill-rule="nonzero"></path>
            <path d="M25.4272101,13.0511494 C25.1696773,12.8344066 24.7603279,12.3794398 24.3495303,12.4615028 C23.9088039,12.5495998 23.7784686,13.0974908 23.7034051,13.4508443 C23.6469265,13.718273 22.6771353,18.3026965 22.8320895,23.0823816 C22.9609766,27.0609873 23.2383012,29.5426679 24.0391392,32.0342444 C25.5406501,36.7912415 29.9148476,38.9313416 32.5411039,38.9313416 C32.5411039,38.9313416 33.2924628,38.948532 34.0117205,38.6671043 C34.2277392,38.5826278 34.4333794,38.4674982 34.6650866,38.3123027 C34.4712731,38.0506666 34.3006304,37.7598258 34.143504,37.4330221 C33.6327827,36.3686172 33.3709053,35.0754014 33.3602854,33.4778285 C33.3308393,29.0413597 34.8861738,25.7163614 34.9161027,25.6231958 C32.1262032,18.6908061 25.684743,13.2681335 25.4272101,13.0511494" id="Fill-25" fill="#C4243B" fill-rule="nonzero"></path>
            <path d="M35.5774336,23.5474855 C37.4298844,19.7093523 40.1546163,16.5472731 42.1946051,14.5072843 C40.9197328,9.8140067 37.256104,3.13480532 36.1077052,1.50368318 C35.940683,1.26666602 35.8096236,1.10905686 35.5701928,1.10905686 C35.3237625,1.10905686 35.2132189,1.26666602 35.0461966,1.50368318 C33.8977978,3.13480532 30.2341691,9.8140067 28.9592968,14.5072843 C30.9992856,16.5472731 33.7237761,19.7093523 35.5767096,23.5474855 L35.5767096,23.5486923 C35.5767096,23.5484509 35.5769509,23.5484509 35.5769509,23.5482096 C35.5771923,23.5484509 35.5771923,23.5484509 35.5774336,23.5486923 L35.5774336,23.5474855" id="Fill-26" fill="#C4243B" fill-rule="nonzero"></path>
            <path d="M30.5221136,6.64541075 C29.4799139,5.78181871 26.2905608,3.26393381 25.8368009,2.93230288 C25.485861,2.67573543 25.2698423,2.58136302 24.9121444,2.64073799 C24.5971674,2.69311347 24.3823555,3.00060823 24.2300563,3.40488902 C24.2242636,3.41864664 23.5368656,5.67320596 22.8168837,8.98589482 C25.3733865,10.7142857 26.3192829,11.8136881 27.893685,13.0545284 C28.5955647,11.091534 29.4538468,8.62578322 30.5221136,6.64541075" id="Fill-27" fill="#C4243B" fill-rule="nonzero"></path>
            <path d="M8.2342946,24.5406887 C9.85527955,23.7369544 11.3128626,23.1308953 12.8708522,22.5376283 C12.5462208,20.5502563 12.3540969,18.3794495 12.2988251,16.0828933 C12.2988251,16.0828933 6.92008033,15.5750683 5.62396818,15.737022 C4.97711891,15.8178781 4.71644831,15.9590747 4.51153226,16.2581218 C4.35899169,16.4804159 4.32761467,16.9073847 4.35995713,17.2754612 C4.42367661,17.9971326 5.0729395,20.5521872 8.2342946,24.5406887" id="Fill-28" fill="#C4243B" fill-rule="nonzero"></path>
            <path d="M16.1475782,32.4904179 C14.7971597,30.1260391 13.7839234,27.2748337 13.13635,24.0157271 C8.06123828,25.9379314 4.11038917,28.538362 2.55433051,29.5786308 C1.69460026,30.1530716 1.45179042,30.5855917 1.42837834,31.1129669 C1.39748405,31.8003649 1.96468396,32.840151 6.24499175,34.9059655 C9.99213161,36.7144885 15.1970959,37.6739011 21.3923672,38.0941117 C19.3419998,36.8588227 17.5407177,34.938308 16.1475782,32.4904179" id="Fill-29" fill="#C4243B" fill-rule="nonzero"></path>
            <path d="M33.6532984,40.4275963 C31.5563483,39.8430184 29.1726605,39.7684376 27.3286574,39.7684376 L27.3276919,39.7684376 C26.4426187,39.7684376 25.5573041,39.7889534 24.7769818,39.8063314 C24.7769818,39.8063314 23.1074832,39.8234681 22.3611929,39.8430184 C21.0851138,39.8765676 20.0158816,39.8039178 18.639396,39.5746242 C16.9274177,39.2890933 16.1309242,39.1203815 15.1024822,39.0916595 C14.1756534,39.0696956 13.7438573,39.3547437 13.5729733,39.9586306 C13.4378108,40.436044 13.6919646,40.9631779 13.9490148,41.2462951 C14.7100281,42.0876819 16.7509823,42.3898667 19.1095685,42.3898667 C21.3450603,42.3898667 22.9544599,41.9834136 24.6567837,41.5530658 C26.4677203,41.0956854 28.3406868,40.6226166 31.082314,40.6226166 C31.8413964,40.6226166 33.3791116,40.7312293 33.5451684,40.7295398 C33.7061567,40.7276089 33.8700412,40.7254366 33.8823507,40.6243061 C33.8975565,40.4973498 33.7638421,40.4606629 33.6532984,40.4275963" id="Fill-30" fill="#C4243B" fill-rule="nonzero"></path>
        </g>
    </g>
</svg>