<svg width="24" height="23" viewBox="0 0 24 23" fill="none" xmlns="http://www.w3.org/2000/svg">
<g clip-path="url(#clip0)">
<path d="M11.1505 18.576C10.2405 18.6225 9.40899 18.3395 8.55993 18.0451C7.70243 17.7376 6.92831 17.2348 6.29887 16.5763C6.02205 16.2984 6.10468 16.0949 6.45484 15.9142C7.20784 15.5258 8.0507 15.3977 8.81403 15.0413C9.57735 14.685 9.99878 13.6985 9.34701 12.8918C9.07639 12.5551 8.78717 12.2225 8.74585 11.7556C8.74456 11.6869 8.71725 11.6212 8.66942 11.5718C8.04967 11.1762 8.16122 10.576 8.2046 9.98521C8.25418 9.30348 8.11267 8.62795 8.15916 7.93899C8.22216 7.00317 8.61674 6.29459 9.36767 5.79362C10.1599 5.26477 11.6504 4.89498 12.4861 5.88245C12.703 6.13965 12.9932 6.0942 13.2091 6.24294C13.7163 6.58897 14.0447 7.04242 14.1077 7.70142C14.2038 8.71162 14.0044 9.71458 14.1005 10.7217C14.1176 10.8382 14.1032 10.9571 14.0587 11.0661C14.0142 11.1752 13.9412 11.2702 13.8474 11.3414C13.6392 11.511 13.5026 11.753 13.4653 12.019C13.4237 12.2697 13.2976 12.4986 13.1079 12.6677C12.548 13.1108 12.4995 13.7399 12.7019 14.2677C12.9302 14.8595 13.5179 15.2076 14.18 15.312C14.8421 15.4163 15.4071 15.7654 16.0217 15.9875C16.1849 16.0453 16.2665 16.3377 16.0093 16.5763C15.3359 17.196 14.6273 17.7187 13.7369 18.0337C12.8951 18.3405 12.0605 18.6204 11.1505 18.576Z" fill="#002664"/>
<path fill-rule="evenodd" clip-rule="evenodd" d="M6.15835 4.64224C9.7747 2.02841 14.7116 2.55116 17.7287 5.68634C18.0162 5.98509 18.4911 5.9948 18.7894 5.70804C19.0878 5.42127 19.0965 4.94662 18.809 4.64788C15.2813 0.982095 9.50929 0.367871 5.27759 3.42648L5.69016 3.99597L5.27758 3.42648C0.641181 6.77763 -0.39708 13.2744 2.95745 17.9265C6.31274 22.5798 12.8015 23.6388 17.4388 20.2868C20.5405 18.045 22.0304 14.3968 21.6753 10.8364L23.2044 10.1553L19.1289 6.65125L18.8501 12.0949L20.2184 11.4854C20.3426 14.3725 19.0635 17.2602 16.5581 19.0711L16.9985 19.6789L16.5581 19.0711C12.5941 21.9363 7.04475 21.0325 4.17407 17.0513L4.17407 17.0513C1.30265 13.0691 2.19318 7.50823 6.15835 4.64224Z" fill="#002664"/>
</g>
<defs>
<clipPath id="clip0">
<rect width="23" height="21.2482" fill="white" transform="translate(0.5 0.875977)"/>
</clipPath>
</defs>
</svg>
