<svg width="18" height="18" viewBox="0 0 18 18" fill="none" xmlns="http://www.w3.org/2000/svg">
<path d="M15.875 0.25H2.125C1.08984 0.25 0.25 1.08984 0.25 2.125V15.875C0.25 16.9102 1.08984 17.75 2.125 17.75H15.875C16.9102 17.75 17.75 16.9102 17.75 15.875V2.125C17.75 1.08984 16.9102 0.25 15.875 0.25ZM5.89453 11.4609C4.52344 11.4609 3.41406 10.3516 3.41406 8.98047C3.41406 7.60938 4.52344 6.5 5.89453 6.5C7.26562 6.5 8.375 7.60938 8.375 8.98047C8.375 10.3516 7.26562 11.4609 5.89453 11.4609ZM12.1055 11.4609C10.7344 11.4609 9.625 10.3516 9.625 8.98047C9.625 7.60938 10.7344 6.5 12.1055 6.5C13.4766 6.5 14.5859 7.60938 14.5859 8.98047C14.5859 10.3516 13.4766 11.4609 12.1055 11.4609Z" fill="black"/>
</svg>
